<?xml version="1.0" standalone="no"?>
<!DOCTYPE svg PUBLIC "-//W3C//DTD SVG 20010904//EN"
 "http://www.w3.org/TR/2001/REC-SVG-20010904/DTD/svg10.dtd">
<svg version="1.0" xmlns="http://www.w3.org/2000/svg"
 width="512.000000pt" height="512.000000pt" viewBox="0 0 512.000000 512.000000"
 preserveAspectRatio="xMidYMid meet">
<metadata>
Created by potrace 1.14, written by Peter Selinger 2001-2017
</metadata>
<g transform="translate(0.000000,512.000000) scale(0.100000,-0.100000)"
fill="#000000" stroke="none">
<path d="M4027 5106 c-105 -39 -158 -164 -113 -270 23 -54 869 -900 923 -922
157 -66 325 89 273 253 -10 30 -105 131 -448 475 -250 250 -451 445 -472 455
-47 22 -116 26 -163 9z"/>
<path d="M3853 4648 c-41 -53 -62 -190 -43 -277 21 -101 63 -159 235 -332 170
-170 226 -209 328 -228 90 -16 196 1 271 46 18 10 -18 49 -377 407 -218 218
-398 396 -400 396 -3 0 -9 -6 -14 -12z"/>
<path d="M2868 3153 l-927 -927 -79 77 c-89 86 -120 96 -160 54 l-22 -24 56
-89 c86 -137 217 -286 345 -390 37 -31 166 -116 217 -145 l44 -24 19 24 c34
41 25 66 -53 147 -40 41 -73 80 -73 85 0 6 416 426 925 934 l925 925 -140 140
c-77 77 -142 140 -145 140 -3 0 -422 -417 -932 -927z"/>
<path d="M802 2228 c-275 -277 -512 -516 -525 -533 -114 -145 -203 -337 -248
-536 -27 -118 -34 -338 -14 -451 63 -356 307 -614 646 -684 106 -21 305 -26
404 -9 94 15 226 49 290 74 75 29 241 120 300 163 39 29 296 278 572 553 443
441 503 505 503 532 0 41 -19 54 -130 92 -315 108 -542 243 -741 441 -218 217
-368 477 -449 778 -14 53 -41 82 -78 82 -24 0 -104 -75 -530 -502z m734 -1531
c21 -7 42 -42 38 -64 -1 -7 -2 -18 -3 -24 -3 -23 -102 -101 -194 -153 -160
-88 -329 -131 -512 -130 -154 1 -285 46 -368 126 -53 50 -59 79 -25 115 29 31
66 29 108 -5 93 -75 164 -97 310 -96 200 2 413 82 567 215 32 27 40 29 79 16z"/>
</g>
</svg>
